<svg width="297" height="271" viewBox="0 0 297 271" fill="none" xmlns="http://www.w3.org/2000/svg">
<path d="M297 114.46C297 51.821 246.236 0.858994 183.84 0.858994H10.259C4.593 0.858994 0 5.45299 0 11.118C0 12.259 0.125 39.351 11.011 66.816C26.156 105.019 54.361 125.213 92.578 125.213H94.976L85.719 143.728C83.185 148.795 85.239 154.958 90.308 157.492C91.781 158.228 93.345 158.577 94.887 158.577C98.65 158.577 102.274 156.499 104.071 152.903L117.916 125.214H183.702C208.557 125.214 229.556 144.287 229.556 166.864C229.556 187.342 212.459 204.326 190.302 207.129C189.44 202.632 187.865 197.006 184.996 191.304C176.456 174.333 160.371 164.987 139.705 164.987H94.895C89.23 164.987 84.636 169.581 84.636 175.247C84.636 176.552 84.81 188.344 90.857 200.488C94.371 207.547 99.211 213.264 105.129 217.565C99.21 221.866 94.37 227.583 90.857 234.641C84.81 246.786 84.636 258.578 84.636 259.883C84.636 265.549 89.23 270.142 94.895 270.142H139.705C160.371 270.142 176.456 260.795 184.996 243.826C187.892 238.067 189.468 232.391 190.325 227.872C249.716 224.484 297 174.913 297 114.46ZM139.705 185.504C152.539 185.504 161.27 190.247 166.4 200.006C167.519 202.134 168.355 204.295 168.981 206.324H136.055C123.242 206.324 114.551 201.594 109.488 191.861C108.375 189.719 107.547 187.544 106.93 185.504H139.705ZM166.668 234.601C161.581 244.709 152.761 249.623 139.705 249.623H106.935C107.501 247.743 108.246 245.752 109.225 243.785C114.244 233.703 123.02 228.802 136.056 228.802H168.977C168.403 230.67 167.651 232.648 166.668 234.601ZM219.189 28.426L173.427 104.694H122.081V21.378H183.839C196.352 21.378 208.291 23.888 219.189 28.426ZM30.274 59.73C24.508 45.377 22.149 30.778 21.184 21.377H101.564V104.693H92.578C63.223 104.694 42.261 89.567 30.274 59.73ZM196.64 105.89L237.148 38.375C258.592 53.587 273.348 77.708 276.036 105.333L228.49 121.182C219.414 113.34 208.452 108.1 196.64 105.89ZM248.198 181.355C249.423 176.708 250.073 171.854 250.073 166.864C250.073 156.727 247.434 146.937 242.477 138.148L275.626 127.099C272.755 148.262 262.782 167.186 248.198 181.355Z" fill="#E72410"/>
<path d="M61.038 36.491C58.34 36.491 55.693 37.589 53.784 39.497C51.876 41.405 50.778 44.053 50.778 46.751C50.778 49.448 51.876 52.096 53.784 54.003C55.703 55.911 58.34 57.01 61.038 57.01C63.735 57.01 66.383 55.911 68.29 54.003C70.209 52.096 71.297 49.448 71.297 46.751C71.297 44.053 70.209 41.405 68.29 39.497C66.393 37.589 63.746 36.491 61.038 36.491Z" fill="#E72410"/>
</svg>
